<mxfile host="app.diagrams.net" agent="Mozilla/5.0 (Windows NT 10.0; Win64; x64) AppleWebKit/537.36 (KHTML, like Gecko) Chrome/138.0.0.0 Safari/537.36" version="28.1.0">
  <diagram name="Pagina-1" id="KV2xcldq6ILxOlg3TXNm">
    <mxGraphModel dx="1426" dy="777" grid="1" gridSize="10" guides="1" tooltips="1" connect="1" arrows="1" fold="1" page="1" pageScale="1" pageWidth="827" pageHeight="1169" math="0" shadow="0">
      <root>
        <mxCell id="0" />
        <mxCell id="1" parent="0" />
        <mxCell id="0QcbgLU-jdR05Hk7cI1A-1" value="User" style="swimlane;childLayout=stackLayout;horizontal=1;startSize=50;horizontalStack=0;rounded=1;fontSize=14;fontStyle=0;strokeWidth=2;resizeParent=0;resizeLast=1;shadow=0;dashed=0;align=center;arcSize=4;whiteSpace=wrap;html=1;" vertex="1" parent="1">
          <mxGeometry x="110" y="430" width="160" height="120" as="geometry" />
        </mxCell>
        <mxCell id="0QcbgLU-jdR05Hk7cI1A-2" value="userId&lt;br&gt;name&lt;div&gt;email&lt;br&gt;&lt;div&gt;role&lt;/div&gt;&lt;/div&gt;" style="align=left;strokeColor=none;fillColor=none;spacingLeft=4;spacingRight=4;fontSize=12;verticalAlign=top;resizable=0;rotatable=0;part=1;html=1;whiteSpace=wrap;" vertex="1" parent="0QcbgLU-jdR05Hk7cI1A-1">
          <mxGeometry y="50" width="160" height="70" as="geometry" />
        </mxCell>
        <mxCell id="0QcbgLU-jdR05Hk7cI1A-3" value="Boardgame" style="swimlane;childLayout=stackLayout;horizontal=1;startSize=50;horizontalStack=0;rounded=1;fontSize=14;fontStyle=0;strokeWidth=2;resizeParent=0;resizeLast=1;shadow=0;dashed=0;align=center;arcSize=4;whiteSpace=wrap;html=1;" vertex="1" parent="1">
          <mxGeometry x="380" y="300" width="160" height="200" as="geometry" />
        </mxCell>
        <mxCell id="0QcbgLU-jdR05Hk7cI1A-4" value="boardgameId&lt;div&gt;title&lt;div&gt;publisher&lt;br&gt;&lt;div&gt;year&lt;/div&gt;&lt;/div&gt;&lt;/div&gt;&lt;div&gt;minPlayers&lt;/div&gt;&lt;div&gt;maxPlayers&lt;/div&gt;&lt;div&gt;bggId&lt;/div&gt;&lt;div&gt;bggURL&lt;/div&gt;&lt;div&gt;imageURL&lt;/div&gt;" style="align=left;strokeColor=none;fillColor=none;spacingLeft=4;spacingRight=4;fontSize=12;verticalAlign=top;resizable=0;rotatable=0;part=1;html=1;whiteSpace=wrap;" vertex="1" parent="0QcbgLU-jdR05Hk7cI1A-3">
          <mxGeometry y="50" width="160" height="150" as="geometry" />
        </mxCell>
        <mxCell id="0QcbgLU-jdR05Hk7cI1A-7" value="BoardgameCopy" style="swimlane;childLayout=stackLayout;horizontal=1;startSize=50;horizontalStack=0;rounded=1;fontSize=14;fontStyle=0;strokeWidth=2;resizeParent=0;resizeLast=1;shadow=0;dashed=0;align=center;arcSize=4;whiteSpace=wrap;html=1;" vertex="1" parent="1">
          <mxGeometry x="330" y="90" width="160" height="110" as="geometry" />
        </mxCell>
        <mxCell id="0QcbgLU-jdR05Hk7cI1A-8" value="copyId&lt;div&gt;boardgameId&lt;div&gt;owner&lt;/div&gt;&lt;/div&gt;" style="align=left;strokeColor=none;fillColor=none;spacingLeft=4;spacingRight=4;fontSize=12;verticalAlign=top;resizable=0;rotatable=0;part=1;html=1;whiteSpace=wrap;" vertex="1" parent="0QcbgLU-jdR05Hk7cI1A-7">
          <mxGeometry y="50" width="160" height="60" as="geometry" />
        </mxCell>
        <mxCell id="0QcbgLU-jdR05Hk7cI1A-9" value="Lending" style="swimlane;childLayout=stackLayout;horizontal=1;startSize=50;horizontalStack=0;rounded=1;fontSize=14;fontStyle=0;strokeWidth=2;resizeParent=0;resizeLast=1;shadow=0;dashed=0;align=center;arcSize=4;whiteSpace=wrap;html=1;" vertex="1" parent="1">
          <mxGeometry x="80" y="90" width="160" height="165" as="geometry" />
        </mxCell>
        <mxCell id="0QcbgLU-jdR05Hk7cI1A-10" value="loanId&lt;div&gt;copyId&lt;/div&gt;&lt;div&gt;borrower&lt;/div&gt;&lt;div&gt;loanTimestamp&lt;/div&gt;&lt;div&gt;loanDeadline&lt;/div&gt;&lt;div&gt;returnedAt&lt;/div&gt;&lt;div&gt;statusId&lt;/div&gt;" style="align=left;strokeColor=none;fillColor=none;spacingLeft=4;spacingRight=4;fontSize=12;verticalAlign=top;resizable=0;rotatable=0;part=1;html=1;whiteSpace=wrap;" vertex="1" parent="0QcbgLU-jdR05Hk7cI1A-9">
          <mxGeometry y="50" width="160" height="115" as="geometry" />
        </mxCell>
        <mxCell id="0QcbgLU-jdR05Hk7cI1A-11" style="edgeStyle=orthogonalEdgeStyle;rounded=0;orthogonalLoop=1;jettySize=auto;html=1;entryX=0;entryY=0.75;entryDx=0;entryDy=0;" edge="1" parent="1" source="0QcbgLU-jdR05Hk7cI1A-2" target="0QcbgLU-jdR05Hk7cI1A-8">
          <mxGeometry relative="1" as="geometry" />
        </mxCell>
        <mxCell id="0QcbgLU-jdR05Hk7cI1A-13" value="LoanStatus" style="swimlane;childLayout=stackLayout;horizontal=1;startSize=50;horizontalStack=0;rounded=1;fontSize=14;fontStyle=0;strokeWidth=2;resizeParent=0;resizeLast=1;shadow=0;dashed=0;align=center;arcSize=4;whiteSpace=wrap;html=1;" vertex="1" parent="1">
          <mxGeometry x="80" y="290" width="160" height="100" as="geometry" />
        </mxCell>
        <mxCell id="0QcbgLU-jdR05Hk7cI1A-14" value="statusId&lt;div&gt;statusCode&lt;/div&gt;&lt;div&gt;statusText&lt;/div&gt;&lt;div&gt;&lt;br&gt;&lt;/div&gt;" style="align=left;strokeColor=none;fillColor=none;spacingLeft=4;spacingRight=4;fontSize=12;verticalAlign=top;resizable=0;rotatable=0;part=1;html=1;whiteSpace=wrap;" vertex="1" parent="0QcbgLU-jdR05Hk7cI1A-13">
          <mxGeometry y="50" width="160" height="50" as="geometry" />
        </mxCell>
        <mxCell id="0QcbgLU-jdR05Hk7cI1A-17" style="edgeStyle=orthogonalEdgeStyle;rounded=0;orthogonalLoop=1;jettySize=auto;html=1;entryX=0;entryY=0.25;entryDx=0;entryDy=0;" edge="1" parent="1" source="0QcbgLU-jdR05Hk7cI1A-10" target="0QcbgLU-jdR05Hk7cI1A-8">
          <mxGeometry relative="1" as="geometry" />
        </mxCell>
        <mxCell id="0QcbgLU-jdR05Hk7cI1A-18" style="edgeStyle=orthogonalEdgeStyle;rounded=0;orthogonalLoop=1;jettySize=auto;html=1;exitX=1;exitY=0.5;exitDx=0;exitDy=0;entryX=0;entryY=0.1;entryDx=0;entryDy=0;entryPerimeter=0;" edge="1" parent="1" source="0QcbgLU-jdR05Hk7cI1A-8" target="0QcbgLU-jdR05Hk7cI1A-4">
          <mxGeometry relative="1" as="geometry" />
        </mxCell>
        <mxCell id="0QcbgLU-jdR05Hk7cI1A-19" style="edgeStyle=orthogonalEdgeStyle;rounded=0;orthogonalLoop=1;jettySize=auto;html=1;entryX=0;entryY=0.122;entryDx=0;entryDy=0;entryPerimeter=0;exitX=0;exitY=0.5;exitDx=0;exitDy=0;" edge="1" parent="1" source="0QcbgLU-jdR05Hk7cI1A-13" target="0QcbgLU-jdR05Hk7cI1A-10">
          <mxGeometry relative="1" as="geometry" />
        </mxCell>
      </root>
    </mxGraphModel>
  </diagram>
</mxfile>
